<?xml version="1.0" encoding="utf-8"?>
<!-- Generator: Adobe Illustrator 23.0.6, SVG Export Plug-In . SVG Version: 6.00 Build 0)  -->
<svg version="1.1" id="Layer_1" xmlns="http://www.w3.org/2000/svg" xmlns:xlink="http://www.w3.org/1999/xlink" x="0px" y="0px"
	 viewBox="0 0 986.9 426" style="enable-background:new 0 0 986.9 426;" xml:space="preserve">
<style type="text/css">
	.st0{fill:#CF202A;}
	.st1{fill:#88C881;}
	.st2{fill:#6BA543;}
	.st3{fill:#D396C2;}
	.st4{fill:#BE3D95;}
	.st5{fill:#94C85B;}
	.st6{fill:#EE5E80;}
	.st7{fill:#F6AA2F;}
	.st8{fill:#EE4223;}
	.st9{fill:#B4CB34;}
	.st10{fill:#761E14;}
	.st11{fill:#4B823D;}
	.st12{fill:#EE4524;}
</style>
<g>
	<g>
		<path class="st0" d="M69.3,162.7c0,0,28.5-20.5,21.6-24.7c-7.1-4.3-19.2,0-19.2,0s1.2-23.6-8-24.6c-9.2-1.1-11.6,19.3-11.6,19.3
			S42,115.1,36.1,115.9c-5.9,0.8,7.8,38.9,7.8,38.9L69.3,162.7z"/>
		<path class="st1" d="M50.6,345.5c-0.2-1-21.5-112.4,3.6-167l-2-1.6c-26,56.8-7.2,154.1-6.4,158.2L50.6,345.5z"/>
		<path class="st1" d="M53.4,180.4c0,0,10.1,2,16-17.7c0,0-13.6-14-25.6-8.2c0,0-4.9,12.4,7.4,25.4L53.4,180.4z"/>
		<g>
			<path class="st1" d="M41.1,228.4c0,0,26.2-10.7,25-36.2C66.1,192.2,44.6,197.4,41.1,228.4z"/>
		</g>
		<g>
			<path class="st1" d="M44.3,296.4c0,0-4.4-18.5,7.4-27.8C64,258.9,66,252,66,252s4.6,15.7-2.6,27.9
				C56.3,292,46.6,290.9,44.3,296.4z"/>
		</g>
		<g>
			<path class="st1" d="M41.1,259.7c0,0,1.2-19.3-10.4-24.7c-12-5.5-14.8-11.6-14.8-11.6s-1.8,16.7,6.2,26.2
				C30.1,259.2,38.3,255,41.1,259.7z"/>
		</g>
	</g>
</g>
<g>
	<g>
		<g>
			<path class="st2" d="M265.7,345.5l-1.9-0.8c0.2-0.8,19.4-84.8-19.5-170.8l5.2-4.5C289.3,257.5,265.9,344.6,265.7,345.5z"/>
			<path class="st3" d="M249,173.2c0,0-12.5,8.2-21.9-16.4c-7.1-18.5-10-26.5-24.3-24.5c0,0,5.3-12.7,14.8-10.3
				c0,0-1.4-9.2-10.3-12.5c0,0,10-6.1,17.6,2.5c0,0,0.7-18.4,9-20.1c0,0-1.6,13.9,1.4,18.5c0,0,5.8-10.7,16.1-8.4
				c0,0-9.3,8.7-7.1,20.4C247.8,141,265,159.4,249,173.2z"/>
		</g>
		<path class="st4" d="M223.3,139.1c-0.2,3,7,16.7,9.1,21.5c2.6,5.8,10.2,11.8,15.7,7c5.7-4.9,4.9-12.3,1.5-22
			c-3.4-9.7-7.1-21.6-7.6-23.4c-0.5-1.8-1.2,6.1,1.5,15.5c0,0-4.8-11.5-6.8-12.1c-2-0.6,5.1,17.5,5.1,17.5s-9.1-15.4-10.6-15.4
			c-1.5,0,6.3,18.1,6.3,18.1s-7.3-13.5-9-13.5c-1.7,0,4.2,15.3,4.2,15.3s-5.6-11.7-6.6-12c-1.1-0.3,4.2,13.2,4.2,13.2
			S223.5,135.5,223.3,139.1z"/>
		<g>
			<path class="st2" d="M271,282.2c0,0-20.3-13.5-19.1-32.1C251.8,250,266,258.2,271,282.2z"/>
		</g>
		<g>
			<path class="st2" d="M257.8,201c0,0,22.4-15.6,18-38.6C275.8,162.3,257,171.9,257.8,201z"/>
		</g>
		<g>
			<path class="st2" d="M269.6,245.5c0,0-4.9-52.2,22.4-72.1C292,173.4,303.6,212.4,269.6,245.5z"/>
		</g>
		<g>
			<path class="st2" d="M268.3,322.3c0,0,1.6-36.2-28-46.6C240.3,275.7,230.9,303.7,268.3,322.3z"/>
		</g>
	</g>
</g>
<g>
	<g>
		<g>
			<g>
				<path class="st5" d="M491.6,345.5l-5.3-1c0.1-0.7,7.4-69-11.4-124.8c-14.1-42-2.1-67.6,9.5-92.5c4.8-10.2,12.4-21.3,15.4-32.8
					l2.4,2.9c-3.1,12.2-8.2,23.1-13.2,33.6c-11.4,24.4-22.2,47.4-9.2,85.9C499.3,274.5,491.9,342.6,491.6,345.5z"/>
			</g>
			<path class="st5" d="M484.7,246.6c0,0-24.1,6.9-34.5-26.5C450.2,220.1,477,208.8,484.7,246.6z"/>
			<path class="st5" d="M475,207.4c0,0-5.2-31.5,20.4-45C495.3,162.4,503.9,197.5,475,207.4z"/>
			<path class="st5" d="M476.5,154.1c0,0-19.4-19.9-6.3-51.7C470.2,102.4,493.9,122.4,476.5,154.1z"/>
		</g>
		<g>
			<g>
				<path class="st5" d="M480.2,235.5c-0.2-0.5-16.5-47.4-31.6-71.5l1.6-1.7c15.2,24.3,31.7,71.6,31.9,72.1L480.2,235.5z"/>
			</g>
			<path class="st6" d="M432.9,159.1c0,0-7.3,9.9-11.1,3.7c-3.8-6.2-2.7-16.7,6.5-16.8c0,0-6.7-9.5-0.2-16.6
				c6.9-7.5,11.8,4.2,11.8,4.2s3.6-14,10.9-7.1c5.8,5.4,1.3,17.5-4.1,16.6L432.9,159.1z"/>
			<path class="st5" d="M432.9,159.1c0,0,7.5,13.5,17.3,3.3c0,0,4.4-5.8-3.5-19.3C446.7,143,435.4,148.8,432.9,159.1z"/>
		</g>
		<g>
			<g>
				<path class="st5" d="M493.7,327.3c0-0.5,2-52.1,9.1-81.7l-2-0.8c-7.2,29.9-9.2,81.8-9.2,82.3L493.7,327.3z"/>
			</g>
			<path class="st6" d="M516,233.4c0,0,9.6,5.7,11.4-2c1.8-7.6-2.2-16.8-10.8-12.5c0,0,3.6-12-4.5-15.5c-8.6-3.6-9.8,9.6-9.8,9.6
				s-7.3-11.2-12.1-1.3c-3.8,7.9,3.8,16.9,8.5,13.4L516,233.4z"/>
			<path class="st5" d="M516,233.4c0,0-3.1,16.2-15.1,11.4c0,0-5.7-3.3-2.2-19.7C498.7,225.1,510.8,225.1,516,233.4z"/>
		</g>
	</g>
</g>
<g>
	<g>
		<path class="st7" d="M699.5,139.4c0,0-4.7-36.4,1.7-33.7c6.7,2.8,9.7,19.1,9.7,19.1s8.2-20.8,14.8-14.2c6.6,6.7,1.2,22.7,1.2,22.7
			s12.4-4.2,16,1c3.5,5.2-22.9,20.1-22.9,20.1L699.5,139.4z"/>
		<path class="st8" d="M699.4,138.8c0,0-20.3-14.5-1.2-11.5c0,0,5.6-12.4,10.5,3c0,0,10.5-7,8.2,8c0,0,12.8-5.1,7.5,9.7
			c0,0,5.8,6.6,4.1,9.5c-1.7,2.8-8.6-2.9-8.6-2.9l-9.9-1l-10.8-14"/>
		<path class="st9" d="M702.7,163.4c0,0-7.8-6.4-3.2-24.6c0,0,14.8,2.4,20.5,15.7c0,0-1.4,10.6-15.5,10.2L702.7,163.4z"/>
		<path class="st9" d="M677.8,345.5c-0.2-1.2-24.5-126.2,23.1-189.8l4.7,8.2c-46.6,62.2-25.4,179.5-25.1,180.7L677.8,345.5z"/>
		<path class="st9" d="M685.2,201c0,0,19.2-21.6,34.8-8.9C720,192.1,699.1,220.5,685.2,201z"/>
		<path class="st9" d="M673.2,237.2c0,0,0.8-33.2-17-35.6C656.1,201.7,646.7,229.3,673.2,237.2z"/>
		<path class="st9" d="M673.2,278.3c0,0,14.4-31.5,30.6-22.2C703.8,256.1,695.2,289,673.2,278.3z"/>
	</g>
</g>
<g>
	<g>
		<path class="st10" d="M918.2,156.2c0,0-26.9,24-29.9-3.6c-3-27.7,19.2-28.1,29.4-15.2c0,0-23.9-30.1-0.1-40.8
			c23.8-10.7,18.8,33.6,18.8,33.6s12.2-39.8,26.5-22c14.3,17.7-1,55.9-22,37.8l-22.7,8.2"/>
		<g>
			<g>
				<path class="st11" d="M944.1,345.5c0-0.7-1-134.2-9.4-173l2.5-1c8.5,39.2,9.5,173.2,9.5,173.9L944.1,345.5z"/>
			</g>
			<path class="st12" d="M917.9,156c0,0-12.6,6.8-14.7-3.2c-2.1-10,3.4-21.7,14.4-15.7c0,0-4.3-15.8,6.3-19.8
				c11.2-4.3,12.4,13,12.4,13s9.8-14.2,15.8-1.1c4.8,10.4-5.4,21.7-11.5,17L917.9,156z"/>
			<path class="st11" d="M917.9,156c0,0,3.5,21.1,19.3,15.5c0,0,7.5-3.9,3.4-25.4C940.7,146.2,924.9,145.5,917.9,156z"/>
		</g>
		<path class="st11" d="M940.7,213.5c0,0,9.3-38.3,27.7-34.9C968.4,178.6,962.6,212.8,940.7,213.5z"/>
		<path class="st11" d="M941.9,250.5c0,0-8.4-28.1-29.4-25.4C912.5,225.1,917.8,256.6,941.9,250.5z"/>
		<path class="st11" d="M942.9,286.1c0,0,9.7-39.8,25.5-39.1C968.4,247,980.7,281.4,942.9,286.1z"/>
	</g>
</g>
</svg>
