<?xml version="1.0" encoding="utf-8"?>
<!-- Generator: Adobe Illustrator 23.0.6, SVG Export Plug-In . SVG Version: 6.00 Build 0)  -->
<svg version="1.1" id="Layer_1" xmlns="http://www.w3.org/2000/svg" xmlns:xlink="http://www.w3.org/1999/xlink" x="0px" y="0px"
	 viewBox="0 0 986.9 426" style="enable-background:new 0 0 986.9 426;" xml:space="preserve">
<style type="text/css">
	.st0{fill:#6BA543;}
	.st1{fill:#66963C;}
</style>
<g>
	<g>
		<path class="st0" d="M53,284.9c0,0,4.1-117.7-39.5-148c0,0,43.6,19,54.5,66.1c0,0-16.4-53.6,44.9-85.1c0,0-55.9,44.8-7.7,107.4
			c0,0-17.5-34.7,7.7-55.2c0,0-11,39.7,17.5,54c0,0,17.4-54.9-5-77.7c0,0,31.3,24.4,31.3,68.4c0,0-2.2-32.4,18.6-38.2
			c0,0-17.5,12.8,0,42.5c0,0-2.8-59.5,44-63.9c0,0-42.9,28.5-15.6,63.9c0,0,42.1-61.7,15.6-99.7c0,0,40.3,35.2,27.1,90.4
			c0,0,12-52.1,41.6-68.2c0,0-29.6,41.5-17.5,67.6c0,0,51.5-52.7,31.8-86.8c0,0,35.3,63.9,4.5,107.9c0,0,43.7-34.1,27.3-65.7
			c0,0,21.6,26.7,3.7,62c0,0,11.7-30.3,30.3-27.9c0,0-24.7,14.9,4.6,29.2c0,0,25.4-34.7,0-58.3c0,0,41.4,21.7,23.9,55.2
			c0,0,36-48,4.3-79.8c0,0,36.2,27.7,19.8,74.3c0,0,18.6-51.4,47.1-60.7c0,0-34,29.1-14.2,56.4c0,0,16.4-5,14.2-23.3
			c0,0,16.3,17.1,5.4,36.9c0,0,31.9-35.4,13.2-57.1c0,0,28.4,29.8,14.2,52.7c0,0,35-56.5-9.9-93.1c0,0,52.6,39.7,36.1,89.3
			c0,0,5.5-39.8,25.2-43.8c0,0-16.4,37,0,46.3c0,0,41.4-42.2,23-83.7c0,0,23.1,29.2,6.6,78.8c0,0,3.9-40.3,40.3-45.9
			c0,0-39.2,21.1-11.8,49c0,0,56.9-45.3,12-90c0,0,50.4,41,24.1,93.7c0,0,52.6-40.3,31.8-67c0,0,26.1,29.8,9.2,64.5
			c0,0,11.6-32.3,31.3-39.7c0,0-18.6,23.6,12,43.4c0,0,15.9-12.4,6.9-29.8c0,0,24.9,15.5,11.8,34.7c0,0,30.2-55.2-25.4-93.7
			c0,0,66,29.8,44.1,89.9c0,0,14.2-55.2,66.8-38.5c0,0-50.4-8.7-37.2,40.3c0,0,29.8-10,18.5-26c0,0,30.8,6.2,13.8,24.8
			c0,0,44.4-39.5-6-75.3c0,0,49.3,21.3,29.6,69.1c0,0,15.3-38.5,42.7-42.2c0,0-20.8,9.9-14.2,34.7c0,0,40.5-21.7,19.7-52.7
			c0,0,27.2,20.5,5.9,61.4c0,0,20.4-45.9,58.7-42.2c0,0-44.6,20.7-47.7,104.2H53z"/>
		<path class="st1" d="M947.8,195.8c-9.7,6.4-21.7,12.3-35.5,17.8c-1.7,2.7-2.9,5-3.8,6.6c1-2.1,1.9-4.2,2.7-6.2
			c-136.7,54-454.2,67.8-662.4,70.8h669.4C920.1,237.6,935.1,210.5,947.8,195.8z"/>
	</g>
</g>
</svg>
