<?xml version="1.0" encoding="utf-8"?>
<!-- Generator: Adobe Illustrator 23.0.6, SVG Export Plug-In . SVG Version: 6.00 Build 0)  -->
<svg version="1.1" id="Layer_1" xmlns="http://www.w3.org/2000/svg" xmlns:xlink="http://www.w3.org/1999/xlink" x="0px" y="0px"
	 viewBox="0 0 981.7 416.2" style="enable-background:new 0 0 981.7 416.2;" xml:space="preserve">
<style type="text/css">
	.st0{fill:#6A5121;}
	.st1{fill:#598F3F;}
	.st2{fill:#467336;}
</style>
<g>
	<g>
		<polygon class="st0" points="68.1,329.8 65,330.3 61.8,329.8 56.4,416.2 65,416.2 73.6,416.2 		"/>
	</g>
	<g>
		<polygon class="st1" points="105.7,349.8 110.3,349.8 99.9,324.3 105.7,324.3 97.3,304.2 102.5,304.2 90.9,284.7 98,284.7 
			86.3,259.7 90.9,259.7 81.8,237.7 88.3,237.7 77.9,218.7 85,218.7 72.7,200 78.6,200 65,168 51.4,200 57.2,200 44.9,218.7 
			52,218.7 41.7,237.7 48.2,237.7 39.1,259.7 43.6,259.7 32,284.7 39.1,284.7 27.5,304.2 32.6,304.2 24.2,324.3 30,324.3 
			19.7,349.8 24.2,349.8 13.2,373 65,373 116.7,373 		"/>
	</g>
</g>
<path class="st2" d="M116.7,373l-11-23.2h4.5l-10.3-25.5h5.8l-8.4-20.1h5.2l-11.6-19.5H98l-11.6-25h4.5l-9.1-22h6.5l-10.4-19H85
	L72.7,200h5.8L65,168c9.8,97.3,0,162.3-15.3,181.3C34.4,368.4,13.2,373,13.2,373H65H116.7z"/>
<g>
	<g>
		<polygon class="st0" points="171.6,279.7 168.5,280.1 165.3,279.7 159.9,366 168.5,366 177.1,366 		"/>
	</g>
	<g>
		<polygon class="st1" points="209.2,299.7 213.8,299.7 203.4,274.2 209.2,274.2 200.8,254 206,254 194.4,234.6 201.5,234.6 
			189.8,209.6 194.4,209.6 185.3,187.6 191.8,187.6 181.4,168.6 188.5,168.6 176.2,149.8 182.1,149.8 168.5,117.9 154.9,149.8 
			160.7,149.8 148.4,168.6 155.5,168.6 145.2,187.6 151.7,187.6 142.6,209.6 147.1,209.6 135.5,234.6 142.6,234.6 131,254 
			136.1,254 127.7,274.2 133.6,274.2 123.2,299.7 127.7,299.7 116.7,322.8 168.5,322.8 220.2,322.8 		"/>
	</g>
</g>
<path class="st2" d="M220.2,322.8l-11-23.2h4.5l-10.3-25.5h5.8l-8.4-20.1h5.2l-11.6-19.5h7.1l-11.6-25h4.5l-9.1-22h6.5l-10.4-19h7.1
	l-12.3-18.8h5.8l-13.6-32c9.8,97.3,0,162.3-15.3,181.3c-15.3,19.1-36.5,23.6-36.5,23.6h51.8H220.2z"/>
<g>
	<g>
		<polygon class="st0" points="291.3,161.8 288.2,162.3 285,161.8 279.5,248.2 288.2,248.2 296.8,248.2 		"/>
	</g>
	<g>
		<polygon class="st1" points="328.9,181.8 333.5,181.8 323.1,156.3 328.9,156.3 320.5,136.2 325.7,136.2 314,116.7 321.2,116.7 
			309.5,91.7 314,91.7 305,69.7 311.5,69.7 301.1,50.7 308.2,50.7 295.9,32 301.8,32 288.2,0 274.6,32 280.4,32 268.1,50.7 
			275.2,50.7 264.9,69.7 271.4,69.7 262.3,91.7 266.8,91.7 255.2,116.7 262.3,116.7 250.7,136.2 255.8,136.2 247.4,156.3 
			253.2,156.3 242.9,181.8 247.4,181.8 236.4,205 288.2,205 339.9,205 		"/>
	</g>
</g>
<path class="st2" d="M339.9,205l-11-23.2h4.5l-10.3-25.5h5.8l-8.4-20.1h5.2L314,116.7h7.1l-11.6-25h4.5l-9.1-22h6.5l-10.4-19h7.1
	L295.9,32h5.8L288.2,0c9.8,97.3,0,162.3-15.3,181.3c-15.3,19.1-36.5,23.6-36.5,23.6h51.8H339.9z"/>
<g>
	<g>
		<polygon class="st0" points="378.4,317.4 375.3,317.9 372.1,317.4 366.6,403.8 375.3,403.8 383.9,403.8 		"/>
	</g>
	<g>
		<polygon class="st1" points="416,337.4 420.6,337.4 410.2,311.9 416,311.9 407.6,291.8 412.8,291.8 401.1,272.3 408.3,272.3 
			396.6,247.3 401.1,247.3 392.1,225.3 398.6,225.3 388.2,206.3 395.3,206.3 383,187.6 388.9,187.6 375.3,155.6 361.7,187.6 
			367.5,187.6 355.2,206.3 362.3,206.3 352,225.3 358.4,225.3 349.4,247.3 353.9,247.3 342.3,272.3 349.4,272.3 337.7,291.8 
			342.9,291.8 334.5,311.9 340.3,311.9 330,337.4 334.5,337.4 323.5,360.6 375.3,360.6 427,360.6 		"/>
	</g>
</g>
<path class="st2" d="M427,360.6l-11-23.2h4.5l-10.3-25.5h5.8l-8.4-20.1h5.2l-11.6-19.5h7.1l-11.6-25h4.5l-9.1-22h6.5l-10.4-19h7.1
	L383,187.6h5.8l-13.6-32c9.8,97.3,0,162.3-15.3,181.3c-15.3,19.1-36.5,23.6-36.5,23.6h51.8H427z"/>
<g>
	<g>
		<polygon class="st0" points="486.1,184.1 482.9,184.6 479.8,184.1 474.3,270.5 482.9,270.5 491.6,270.5 		"/>
	</g>
	<g>
		<polygon class="st1" points="523.7,204.1 528.2,204.1 517.9,178.7 523.7,178.7 515.3,158.5 520.5,158.5 508.8,139 515.9,139 
			504.3,114 508.8,114 499.8,92 506.2,92 495.9,73 503,73 490.7,54.3 496.5,54.3 482.9,22.3 469.3,54.3 475.2,54.3 462.9,73 470,73 
			459.6,92 466.1,92 457.1,114 461.6,114 449.9,139 457.1,139 445.4,158.5 450.6,158.5 442.2,178.7 448,178.7 437.7,204.1 
			442.2,204.1 431.2,227.3 482.9,227.3 534.7,227.3 		"/>
	</g>
</g>
<path class="st2" d="M534.7,227.3l-11-23.2h4.5l-10.3-25.5h5.8l-8.4-20.1h5.2L508.8,139h7.1l-11.6-25h4.5l-9.1-22h6.5l-10.4-19h7.1
	l-12.3-18.8h5.8l-13.6-32c9.8,97.3,0,162.3-15.3,181.3c-15.3,19.1-36.5,23.6-36.5,23.6h51.8H534.7z"/>
<g>
	<g>
		<polygon class="st0" points="576.3,330.5 573.1,330.9 570,330.5 564.5,416.8 573.1,416.8 581.7,416.8 		"/>
	</g>
	<g>
		<polygon class="st1" points="613.9,350.4 618.4,350.4 608.1,325 613.9,325 605.5,304.8 610.6,304.8 599,285.4 606.1,285.4 
			594.5,260.3 599,260.3 589.9,238.3 596.4,238.3 586.1,219.4 593.2,219.4 580.9,200.6 586.7,200.6 573.1,168.6 559.5,200.6 
			565.4,200.6 553.1,219.4 560.2,219.4 549.8,238.3 556.3,238.3 547.2,260.3 551.8,260.3 540.1,285.4 547.2,285.4 535.6,304.8 
			540.8,304.8 532.4,325 538.2,325 527.8,350.4 532.4,350.4 521.4,373.6 573.1,373.6 624.9,373.6 		"/>
	</g>
</g>
<path class="st2" d="M624.9,373.6l-11-23.2h4.5L608.1,325h5.8l-8.4-20.1h5.2L599,285.4h7.1l-11.6-25h4.5l-9.1-22h6.5l-10.4-19h7.1
	l-12.3-18.8h5.8l-13.6-32c9.8,97.3,0,162.3-15.3,181.3c-15.3,19.1-36.5,23.6-36.5,23.6h51.8H624.9z"/>
<g>
	<g>
		<polygon class="st0" points="719.3,317.4 716.1,317.9 713,317.4 707.5,403.8 716.1,403.8 724.8,403.8 		"/>
	</g>
	<g>
		<polygon class="st1" points="756.9,337.4 761.4,337.4 751.1,311.9 756.9,311.9 748.5,291.8 753.6,291.8 742,272.3 749.1,272.3 
			737.5,247.3 742,247.3 732.9,225.3 739.4,225.3 729.1,206.3 736.2,206.3 723.9,187.6 729.7,187.6 716.1,155.6 702.5,187.6 
			708.4,187.6 696.1,206.3 703.2,206.3 692.8,225.3 699.3,225.3 690.3,247.3 694.8,247.3 683.1,272.3 690.3,272.3 678.6,291.8 
			683.8,291.8 675.4,311.9 681.2,311.9 670.8,337.4 675.4,337.4 664.4,360.6 716.1,360.6 767.9,360.6 		"/>
	</g>
</g>
<path class="st2" d="M767.9,360.6l-11-23.2h4.5l-10.3-25.5h5.8l-8.4-20.1h5.2L742,272.3h7.1l-11.6-25h4.5l-9.1-22h6.5l-10.4-19h7.1
	l-12.3-18.8h5.8l-13.6-32c9.8,97.3,0,162.3-15.3,181.3c-15.3,19.1-36.5,23.6-36.5,23.6h51.8H767.9z"/>
<g>
	<g>
		<polygon class="st0" points="628,161.2 624.9,161.6 621.7,161.2 616.2,247.5 624.9,247.5 633.5,247.5 		"/>
	</g>
	<g>
		<polygon class="st1" points="665.6,181.2 670.2,181.2 659.8,155.7 665.6,155.7 657.2,135.5 662.4,135.5 650.7,116.1 657.9,116.1 
			646.2,91.1 650.7,91.1 641.7,69.1 648.2,69.1 637.8,50.1 644.9,50.1 632.6,31.3 638.5,31.3 624.9,-0.6 611.3,31.3 617.1,31.3 
			604.8,50.1 611.9,50.1 601.6,69.1 608.1,69.1 599,91.1 603.5,91.1 591.9,116.1 599,116.1 587.3,135.5 592.5,135.5 584.1,155.7 
			589.9,155.7 579.6,181.2 584.1,181.2 573.1,204.3 624.9,204.3 676.6,204.3 		"/>
	</g>
</g>
<path class="st2" d="M676.6,204.3l-11-23.2h4.5l-10.3-25.5h5.8l-8.4-20.1h5.2l-11.6-19.5h7.1l-11.6-25h4.5l-9.1-22h6.5l-10.4-19h7.1
	l-12.3-18.8h5.8l-13.6-32c9.8,97.3,0,162.3-15.3,181.3s-36.5,23.6-36.5,23.6h51.8H676.6z"/>
<g>
	<g>
		<polygon class="st0" points="822.8,171.7 819.6,172.2 816.5,171.7 811,258.1 819.6,258.1 828.3,258.1 		"/>
	</g>
	<g>
		<polygon class="st1" points="860.4,191.7 864.9,191.7 854.6,166.2 860.4,166.2 852,146.1 857.2,146.1 845.5,126.6 852.6,126.6 
			841,101.6 845.5,101.6 836.5,79.6 842.9,79.6 832.6,60.6 839.7,60.6 827.4,41.9 833.2,41.9 819.6,9.9 806,41.9 811.9,41.9 
			799.6,60.6 806.7,60.6 796.3,79.6 802.8,79.6 793.8,101.6 798.3,101.6 786.6,126.6 793.8,126.6 782.1,146.1 787.3,146.1 
			778.9,166.2 784.7,166.2 774.3,191.7 778.9,191.7 767.9,214.9 819.6,214.9 871.4,214.9 		"/>
	</g>
</g>
<path class="st2" d="M871.4,214.9l-11-23.2h4.5l-10.3-25.5h5.8l-8.4-20.1h5.2l-11.6-19.5h7.1l-11.6-25h4.5l-9.1-22h6.5l-10.4-19h7.1
	l-12.3-18.8h5.8l-13.6-32c9.8,97.3,0,162.3-15.3,181.3s-36.5,23.6-36.5,23.6h51.8H871.4z"/>
<g>
	<g>
		<polygon class="st0" points="933.1,333.6 930,334 926.8,333.6 921.3,419.9 930,419.9 938.6,419.9 		"/>
	</g>
	<g>
		<polygon class="st1" points="970.7,353.5 975.2,353.5 964.9,328.1 970.7,328.1 962.3,307.9 967.5,307.9 955.8,288.5 963,288.5 
			951.3,263.5 955.8,263.5 946.8,241.5 953.3,241.5 942.9,222.5 950,222.5 937.7,203.7 943.6,203.7 930,171.7 916.4,203.7 
			922.2,203.7 909.9,222.5 917,222.5 906.7,241.5 913.1,241.5 904.1,263.5 908.6,263.5 897,288.5 904.1,288.5 892.4,307.9 
			897.6,307.9 889.2,328.1 895,328.1 884.7,353.5 889.2,353.5 878.2,376.7 930,376.7 981.7,376.7 		"/>
	</g>
</g>
<path class="st2" d="M981.7,376.7l-11-23.2h4.5l-10.3-25.5h5.8l-8.4-20.1h5.2l-11.6-19.5h7.1l-11.6-25h4.5l-9.1-22h6.5l-10.4-19h7.1
	l-12.3-18.8h5.8l-13.6-32c9.8,97.3,0,162.3-15.3,181.3c-15.3,19.1-36.5,23.6-36.5,23.6H930H981.7z"/>
</svg>
