<?xml version="1.0" encoding="utf-8"?>
<!-- Generator: Adobe Illustrator 23.0.6, SVG Export Plug-In . SVG Version: 6.00 Build 0)  -->
<svg version="1.1" id="Layer_1" xmlns="http://www.w3.org/2000/svg" xmlns:xlink="http://www.w3.org/1999/xlink" x="0px" y="0px"
	 viewBox="0 0 986.9 426" style="enable-background:new 0 0 986.9 426;" xml:space="preserve">
<style type="text/css">
	.st0{fill:#88C881;}
	.st1{fill:#6AA562;}
	.st2{fill:#695020;}
</style>
<g>
	<g>
		<path class="st0" d="M151.2,297.6c-5.1-15.6-22-22.8-37.4-22.9c-6.2-13.5-26.7-20.9-43.3-15.5c-19.3,6.3-24.5,24.7-19.6,37.6
			c0,0,0,0,0,0c-5.8,2.2-10.9,6-14.7,11.6c-8.7,12.9,2.5,30.1,19.3,33.3c15.4,2.9,28-5.8,32.7-15.7c7,6.6,17,10.9,29.7,11.2
			C140.9,337.9,157.3,316.2,151.2,297.6z"/>
		<path class="st1" d="M111.8,321.2c-14.3,1.2-22.6-5.2-22.6-5.2s-9.8,9.1-29.4,10.3c-18.2,1.2-25.4-8.7-26.4-10.1
			c-1.3,11.2,8.6,23,22.2,25.6c15.4,2.9,28-5.8,32.7-15.7c7,6.6,17,10.9,29.7,11.2c22.9,0.6,39.3-21.2,33.2-39.8
			c-5.1-15.6-22-22.8-37.4-22.9C141.5,291.8,126.1,320.1,111.8,321.2z"/>
	</g>
	<g>
		<path class="st2" d="M82.9,419.8c0,0,2.8-83,2-85.8c-0.8-2.9-10.7-15.9-10.7-15.9s12.7,11.9,13.8,6.9c1.2-4.9,3.6-42.1,3.6-42.1
			s0.8,37.6,4,37.2c3.2-0.4,16.2-15.1,16.2-15.1s-15,19.6-15,27c0,7.4,1.2,87.9,1.2,87.9H82.9z"/>
	</g>
</g>
<g>
	<g>
		<path class="st0" d="M473.5,85.4c-5.1-15.6-22-22.8-37.4-22.9C430,49,409.5,41.7,392.9,47.1c-19.3,6.3-24.5,24.7-19.6,37.6
			c0,0,0,0,0,0c-5.8,2.2-10.9,6-14.7,11.6c-8.7,12.9,2.5,30.1,19.3,33.3c15.4,2.9,28-5.8,32.7-15.7c7,6.6,17,10.9,29.7,11.2
			C463.2,125.8,479.7,104.1,473.5,85.4z"/>
		<path class="st1" d="M434.1,109.1c-14.3,1.2-22.6-5.2-22.6-5.2s-9.8,9.1-29.4,10.3c-18.2,1.2-25.4-8.7-26.4-10.1
			c-1.3,11.2,8.6,23,22.2,25.6c15.4,2.9,28-5.8,32.7-15.7c7,6.6,17,10.9,29.7,11.2c22.9,0.6,39.3-21.2,33.2-39.8
			c-5.1-15.6-22-22.8-37.4-22.9C463.8,79.6,448.5,107.9,434.1,109.1z"/>
	</g>
	<g>
		<path class="st2" d="M405.3,207.7c0,0,2.8-83,2-85.8c-0.8-2.9-10.7-15.9-10.7-15.9s12.7,11.9,13.8,6.9c1.2-4.9,3.6-42.1,3.6-42.1
			s0.8,37.6,4,37.2c3.2-0.4,16.2-15.1,16.2-15.1s-15,19.6-15,27c0,7.4,1.2,87.9,1.2,87.9H405.3z"/>
	</g>
</g>
<g>
	<g>
		<path class="st0" d="M360.3,205.4c-5.1-15.6-22-22.8-37.4-22.9c-6.2-13.5-26.7-20.9-43.3-15.5c-19.3,6.3-24.5,24.7-19.6,37.6
			c0,0,0,0,0,0c-5.8,2.2-10.9,6-14.7,11.6c-8.7,12.9,2.5,30.1,19.3,33.3c15.4,2.9,28-5.8,32.7-15.7c7,6.6,17,10.9,29.7,11.2
			C349.9,245.8,366.4,224,360.3,205.4z"/>
		<path class="st1" d="M320.9,229.1c-14.3,1.2-22.6-5.2-22.6-5.2s-9.8,9.1-29.4,10.3c-18.2,1.2-25.4-8.7-26.4-10.1
			c-1.3,11.2,8.6,23,22.2,25.6c15.4,2.9,28-5.8,32.7-15.7c7,6.6,17,10.9,29.7,11.2c22.9,0.6,39.3-21.2,33.2-39.8
			c-5.1-15.6-22-22.8-37.4-22.9C350.5,199.6,335.2,227.9,320.9,229.1z"/>
	</g>
	<g>
		<path class="st2" d="M292,327.7c0,0,2.8-83,2-85.8c-0.8-2.9-10.7-15.9-10.7-15.9s12.7,11.9,13.8,6.9c1.2-4.9,3.6-42.1,3.6-42.1
			s0.8,37.6,4,37.2c3.2-0.4,16.2-15.1,16.2-15.1s-15,19.6-15,27c0,7.4,1.2,87.9,1.2,87.9H292z"/>
	</g>
</g>
<g>
	<g>
		<path class="st0" d="M916.6,93.2c-5.1-15.6-22-22.8-37.4-22.9c-6.2-13.5-26.7-20.9-43.3-15.5c-19.3,6.3-24.5,24.7-19.6,37.6
			c0,0,0,0,0,0c-5.8,2.2-10.9,6-14.7,11.6c-8.7,12.9,2.5,30.1,19.3,33.3c15.4,2.9,28-5.8,32.7-15.7c7,6.6,17,10.9,29.7,11.2
			C906.3,133.6,922.7,111.8,916.6,93.2z"/>
		<path class="st1" d="M877.2,116.9c-14.3,1.2-22.6-5.2-22.6-5.2s-9.8,9.1-29.4,10.3c-18.2,1.2-25.4-8.7-26.4-10.1
			c-1.3,11.2,8.6,23,22.2,25.6c15.4,2.9,28-5.8,32.7-15.7c7,6.6,17,10.9,29.7,11.2c22.9,0.6,39.3-21.2,33.2-39.8
			c-5.1-15.6-22-22.8-37.4-22.9C906.9,87.4,891.5,115.7,877.2,116.9z"/>
	</g>
	<g>
		<path class="st2" d="M848.3,215.5c0,0,2.8-83,2-85.8c-0.8-2.9-10.7-15.9-10.7-15.9s12.7,11.9,13.8,6.9c1.2-4.9,3.6-42.1,3.6-42.1
			s0.8,37.6,4,37.2c3.2-0.4,16.2-15.1,16.2-15.1s-15,19.6-15,27c0,7.4,1.2,87.9,1.2,87.9H848.3z"/>
	</g>
</g>
<g>
	<g>
		<path class="st0" d="M222.2,89.5c-5.1-15.6-22-22.8-37.4-22.9c-6.2-13.5-26.7-20.9-43.3-15.5c-19.3,6.3-24.5,24.7-19.6,37.6
			c0,0,0,0,0,0c-5.8,2.2-10.9,6-14.7,11.6c-8.7,12.9,2.5,30.1,19.3,33.3c15.4,2.9,28-5.8,32.7-15.7c7,6.6,17,10.9,29.7,11.2
			C211.9,129.9,228.3,108.1,222.2,89.5z"/>
		<path class="st1" d="M182.8,113.2c-14.3,1.2-22.6-5.2-22.6-5.2s-9.8,9.1-29.4,10.3c-18.2,1.2-25.4-8.7-26.4-10.1
			c-1.3,11.2,8.6,23,22.2,25.6c15.4,2.9,28-5.8,32.7-15.7c7,6.6,17,10.9,29.7,11.2c22.9,0.6,39.3-21.2,33.2-39.8
			c-5.1-15.6-22-22.8-37.4-22.9C212.5,83.7,197.1,112,182.8,113.2z"/>
	</g>
	<g>
		<path class="st2" d="M153.9,211.8c0,0,2.8-83,2-85.8c-0.8-2.9-10.7-15.9-10.7-15.9s12.7,11.9,13.8,6.9c1.2-4.9,3.6-42.1,3.6-42.1
			s0.8,37.6,4,37.2c3.2-0.4,16.2-15.1,16.2-15.1s-15,19.6-15,27c0,7.4,1.2,87.9,1.2,87.9H153.9z"/>
	</g>
</g>
<g>
	<g>
		<path class="st0" d="M551.8,274c-5.1-15.6-22-22.8-37.4-22.9c-6.2-13.5-26.7-20.9-43.3-15.5c-19.3,6.3-24.5,24.7-19.6,37.6
			c0,0,0,0,0,0c-5.8,2.2-10.9,6-14.7,11.6c-8.7,12.9,2.5,30.1,19.3,33.3c15.4,2.9,28-5.8,32.7-15.7c7,6.6,17,10.9,29.7,11.2
			C541.5,314.3,557.9,292.6,551.8,274z"/>
		<path class="st1" d="M512.4,297.7c-14.3,1.2-22.6-5.2-22.6-5.2s-9.8,9.1-29.4,10.3c-18.2,1.2-25.4-8.7-26.4-10.1
			c-1.3,11.2,8.6,23,22.2,25.6c15.4,2.9,28-5.8,32.7-15.7c7,6.6,17,10.9,29.7,11.2c22.9,0.6,39.3-21.2,33.2-39.8
			c-5.1-15.6-22-22.8-37.4-22.9C542.1,268.2,526.7,296.5,512.4,297.7z"/>
	</g>
	<g>
		<path class="st2" d="M483.5,396.3c0,0,2.8-83,2-85.8c-0.8-2.9-10.7-15.9-10.7-15.9s12.7,11.9,13.8,6.9c1.2-4.9,3.6-42.1,3.6-42.1
			s0.8,37.6,4,37.2c3.2-0.4,16.2-15.1,16.2-15.1s-15,19.6-15,27c0,7.4,1.2,87.9,1.2,87.9H483.5z"/>
	</g>
</g>
<g>
	<g>
		<path class="st0" d="M952.4,286.7c-5.1-15.6-22-22.8-37.4-22.9c-6.2-13.5-26.7-20.9-43.3-15.5c-19.3,6.3-24.5,24.7-19.6,37.6
			c0,0,0,0,0,0c-5.8,2.2-10.9,6-14.7,11.6c-8.7,12.9,2.5,30.1,19.3,33.3c15.4,2.9,28-5.8,32.7-15.7c7,6.6,17,10.9,29.7,11.2
			C942.1,327.1,958.5,305.4,952.4,286.7z"/>
		<path class="st1" d="M913,310.4c-14.3,1.2-22.6-5.2-22.6-5.2s-9.8,9.1-29.4,10.3c-18.2,1.2-25.4-8.7-26.4-10.1
			c-1.3,11.2,8.6,23,22.2,25.6c15.4,2.9,28-5.8,32.7-15.7c7,6.6,17,10.9,29.7,11.2c22.9,0.6,39.3-21.2,33.2-39.8
			c-5.1-15.6-22-22.8-37.4-22.9C942.7,280.9,927.4,309.2,913,310.4z"/>
	</g>
	<g>
		<path class="st2" d="M884.1,409c0,0,2.8-83,2-85.8c-0.8-2.9-10.7-15.9-10.7-15.9s12.7,11.9,13.8,6.9c1.2-4.9,3.6-42.1,3.6-42.1
			s0.8,37.6,4,37.2c3.2-0.4,16.2-15.1,16.2-15.1s-15,19.6-15,27c0,7.4,1.2,87.9,1.2,87.9H884.1z"/>
	</g>
</g>
<g>
	<g>
		<path class="st0" d="M771.7,261.2c-5.1-15.6-22-22.8-37.4-22.9c-6.2-13.5-26.7-20.9-43.3-15.5c-19.3,6.3-24.5,24.7-19.6,37.6
			c0,0,0,0,0,0c-5.8,2.2-10.9,6-14.7,11.6c-8.7,12.9,2.5,30.1,19.3,33.3c15.4,2.9,28-5.8,32.7-15.7c7,6.6,17,10.9,29.7,11.2
			C761.4,301.6,777.8,279.8,771.7,261.2z"/>
		<path class="st1" d="M732.3,284.9c-14.3,1.2-22.6-5.2-22.6-5.2s-9.8,9.1-29.4,10.3c-18.2,1.2-25.4-8.7-26.4-10.1
			c-1.3,11.2,8.6,23,22.2,25.6c15.4,2.9,28-5.8,32.7-15.7c7,6.6,17,10.9,29.7,11.2c22.9,0.6,39.3-21.2,33.2-39.8
			c-5.1-15.6-22-22.8-37.4-22.9C761.9,255.4,746.6,283.7,732.3,284.9z"/>
	</g>
	<g>
		<path class="st2" d="M703.4,383.5c0,0,2.8-83,2-85.8c-0.8-2.9-10.7-15.9-10.7-15.9s12.7,11.9,13.8,6.9c1.2-4.9,3.6-42.1,3.6-42.1
			s0.8,37.6,4,37.2c3.2-0.4,16.2-15.1,16.2-15.1s-15,19.6-15,27c0,7.4,1.2,87.9,1.2,87.9H703.4z"/>
	</g>
</g>
<g>
	<g>
		<path class="st0" d="M680.1,65.7c-5.1-15.6-22-22.8-37.4-22.9c-6.2-13.5-26.7-20.9-43.3-15.5C580.2,33.6,574.9,52,579.8,65
			c0,0,0,0,0,0c-5.8,2.2-10.9,6-14.7,11.6c-8.7,12.9,2.5,30.1,19.3,33.3c15.4,2.9,28-5.8,32.7-15.7c7,6.6,17,10.9,29.7,11.2
			C669.8,106,686.2,84.3,680.1,65.7z"/>
		<path class="st1" d="M640.7,89.3c-14.3,1.2-22.6-5.2-22.6-5.2s-9.8,9.1-29.4,10.3c-18.2,1.2-25.4-8.7-26.4-10.1
			c-1.3,11.2,8.6,23,22.2,25.6c15.4,2.9,28-5.8,32.7-15.7c7,6.6,17,10.9,29.7,11.2c22.9,0.6,39.3-21.2,33.2-39.8
			c-5.1-15.6-22-22.8-37.4-22.9C670.4,59.9,655,88.2,640.7,89.3z"/>
	</g>
	<g>
		<path class="st2" d="M611.8,188c0,0,2.8-83,2-85.8c-0.8-2.9-10.7-15.9-10.7-15.9S615.8,98,617,93.1c1.2-4.9,3.6-42.1,3.6-42.1
			s0.8,37.6,4,37.2c3.2-0.4,16.2-15.1,16.2-15.1s-15,19.6-15,27c0,7.4,1.2,87.9,1.2,87.9H611.8z"/>
	</g>
</g>
</svg>
