<?xml version="1.0" encoding="utf-8"?>
<!-- Generator: Adobe Illustrator 23.0.6, SVG Export Plug-In . SVG Version: 6.00 Build 0)  -->
<svg version="1.1" id="Layer_1" xmlns="http://www.w3.org/2000/svg" xmlns:xlink="http://www.w3.org/1999/xlink" x="0px" y="0px"
	 viewBox="0 0 986.9 426" style="enable-background:new 0 0 986.9 426;" xml:space="preserve">
<style type="text/css">
	.st0{fill:#B4CB34;}
	.st1{fill:#ABB938;}
	.st2{fill:#6A5121;}
</style>
<g>
	<g>
		<g>
			<g>
				<path class="st0" d="M168.7,224.8c0,0-15.9,10.3-26.5-3.6c0,0-17.7,4-21.7-10.7c0,0-21.1-1.5-20.3-16.2c0,0-25.7-11.1-8.8-32.1
					c0,0-16.3-13,2.3-27.7c0,0-14.2-19,10.6-24.6c0,0,2.3-22.6,27-17.5c0,0,6.7-19,30.5-11.9c0,0,21.4-14.3,33.6,4.7
					c0,0,23.4-2.8,27.8,14.7c0,0,22.6,2.8,20.3,23c0,0,17.3,14.3,6.2,31.2c0,0,11.1,28.3-12.9,30.9c0,0,0.7,12.5-13.3,18.1
					c0,0-2.6,15.2-17.6,12.8c0,0-11.5,11.5-19.9,5.1L168.7,224.8z"/>
			</g>
			<path class="st1" d="M243.2,123c2.3-20.1-20.3-23-20.3-23c11.2,43.6-16.2,99.2-58.8,104.2c-42.6,5-64-9.9-64-9.9
				c-0.9,14.7,20.3,16.2,20.3,16.2c4,14.7,21.7,10.7,21.7,10.7c10.6,13.9,26.5,3.6,26.5,3.6l17.2-3.6c8.4,6.4,19.9-5.1,19.9-5.1
				c15,2.4,17.6-12.8,17.6-12.8c14.2-5.5,13.3-18.1,13.3-18.1c23.8-2.6,12.9-30.9,12.9-30.9C260.5,137.2,243.2,123,243.2,123z"/>
		</g>
		<g>
			<path class="st2" d="M142,188.2c0,0,24.7,2.3,26.5,13.8c1.7,11.5-2.7,104.3-2.7,104.3h26.5c0,0-11.5-104.3-7.5-112
				c4-7.5,16.7-11.9,16.7-11.9S187,182,182.1,186c-4.8,4-11.1,5-17.7,4C158,189.2,151.3,187.5,142,188.2z"/>
		</g>
	</g>
</g>
<g>
	<g>
		<g>
			<g>
				<path class="st0" d="M834.7,148.6c0,0-14.6,9.7-24.3-3.3c0,0-16.1,3.7-19.7-10.1c0,0-19.4-1.5-18.6-15.3c0,0-23.4-10.5-8.1-30.1
					c0,0-14.9-12.3,2.1-26.1c0,0-13-17.9,9.6-23.1c0,0,2.1-21.2,24.7-16.5c0,0,6.1-17.9,27.8-11.1c0,0,19.6-13.4,30.7,4.5
					c0,0,21.4-2.7,25.4,13.8c0,0,20.5,2.7,18.6,21.6c0,0,15.9,13.4,5.7,29.5c0,0,10.1,26.7-11.7,29.1c0,0,0.7,11.8-12.3,17
					c0,0-2.3,14.3-16,12.1c0,0-10.5,10.7-18.2,4.9L834.7,148.6z"/>
			</g>
			<path class="st1" d="M902.8,53c2.1-19-18.6-21.6-18.6-21.6c10.2,41-14.7,93.4-53.6,98C791.7,134,772,120,772,120
				c-0.8,13.8,18.6,15.3,18.6,15.3c3.6,13.8,19.7,10.1,19.7,10.1c9.6,13,24.3,3.3,24.3,3.3l15.7-3.3c7.7,6,18.2-4.9,18.2-4.9
				c13.8,2.3,16-12.1,16-12.1c13-5.2,12.3-17,12.3-17c21.8-2.4,11.7-29.1,11.7-29.1C918.6,66.4,902.8,53,902.8,53z"/>
		</g>
		<g>
			<path class="st2" d="M810.4,114.2c0,0,22.6,2.1,24.3,13c1.7,10.9-2.5,98.2-2.5,98.2h24.1c0,0-10.5-98.2-6.9-105.3
				c3.6-7.2,15.3-11.1,15.3-11.1s-13.4-0.3-17.8,3.4c-4.4,3.7-10.1,4.6-16.1,3.7C824.9,115.2,818.8,113.6,810.4,114.2z"/>
		</g>
	</g>
</g>
<g>
	<g>
		<g>
			<g>
				<path class="st0" d="M377.9,125.7c0,0-13.4,7.8-22.2-2.7c0,0-14.8,3-18.1-8.1c0,0-17.6-1.2-16.9-12.2c0,0-21.3-8.4-7.4-24.2
					c0,0-13.7-9.8,1.8-21c0,0-11.8-14.3,8.8-18.5c0,0,1.8-17.1,22.5-13.2c0,0,5.5-14.3,25.5-9c0,0,17.9-10.8,28,3.6
					c0,0,19.5-2.1,23.2,11c0,0,18.8,2.1,16.9,17.3c0,0,14.4,10.8,5.3,23.6c0,0,9.2,21.4-10.7,23.3c0,0,0.6,9.4-11.1,13.7
					c0,0-2.1,11.4-14.7,9.7c0,0-9.5,8.7-16.6,3.9L377.9,125.7z"/>
			</g>
			<path class="st1" d="M440.1,48.8c1.8-15.3-16.9-17.3-16.9-17.3c9.4,32.8-13.5,74.9-48.9,78.6c-35.6,3.8-53.5-7.5-53.5-7.5
				c-0.7,11,16.9,12.2,16.9,12.2c3.3,11,18.1,8.1,18.1,8.1c8.8,10.4,22.2,2.7,22.2,2.7l14.4-2.7c7,4.7,16.6-3.9,16.6-3.9
				c12.5,1.8,14.7-9.7,14.7-9.7c11.8-4.2,11.1-13.7,11.1-13.7c19.9-1.9,10.7-23.3,10.7-23.3C454.5,59.5,440.1,48.8,440.1,48.8z"/>
		</g>
		<g>
			<path class="st2" d="M355.7,98.1c0,0,20.6,1.7,22.1,10.4s-2.3,78.7-2.3,78.7h22.2c0,0-9.5-78.7-6.3-84.4c3.3-5.7,13.9-9,13.9-9
				s-12.1-0.2-16.2,2.8c-4,3-9.2,3.8-14.8,3C369,98.8,363.4,97.6,355.7,98.1z"/>
		</g>
	</g>
</g>
<g>
	<g>
		<g>
			<g>
				<path class="st0" d="M579,300.4c0,0-20.1,12.7-33.4-4.4c0,0-22.3,5-27.1-13.3c0,0-26.6-1.9-25.5-20.2c0,0-32.1-13.8-11.1-39.8
					c0,0-20.5-16.1,2.8-34.4c0,0-17.7-23.6,13.3-30.4c0,0,2.8-28.1,33.8-21.5c0,0,8.3-23.6,38.2-14.8c0,0,26.8-17.7,42.1,6
					c0,0,29.5-3.5,34.9,18.3c0,0,28.2,3.5,25.5,28.4c0,0,21.6,17.7,7.9,38.8c0,0,13.8,35.2-16.2,38.2c0,0,0.9,15.6-16.8,22.5
					c0,0-3.3,18.8-22,16c0,0-14.4,14.2-24.9,6.3L579,300.4z"/>
			</g>
			<path class="st1" d="M672.6,174.2c2.8-25-25.5-28.4-25.5-28.4c14,54-20.3,123.2-73.8,129.4S493,262.8,493,262.8
				c-1.1,18.3,25.5,20.2,25.5,20.2c5,18.3,27.1,13.3,27.1,13.3c13.3,17.1,33.4,4.4,33.4,4.4l21.6-4.4c10.5,7.9,24.9-6.3,24.9-6.3
				c18.8,2.9,22-16,22-16c17.7-6.9,16.8-22.5,16.8-22.5c29.9-3.1,16.2-38.2,16.2-38.2C694.4,191.8,672.6,174.2,672.6,174.2z"/>
		</g>
		<g>
			<path class="st2" d="M545.8,255.1c0,0,31,2.9,33.2,17.1c2.2,14.2-3.3,129.4-3.3,129.4h33.2c0,0-14.4-129.4-9.4-138.8
				c5-9.4,21-14.6,21-14.6s-18.3-0.4-24.4,4.4c-6.1,4.8-13.8,6.2-22.3,4.8C565.6,256.4,557.4,254.3,545.8,255.1z"/>
		</g>
	</g>
</g>
</svg>
